<svg id="Layer_1" data-name="Layer 1" xmlns="http://www.w3.org/2000/svg" viewBox="0 0 101 38"><defs><style>.cls-1{fill:#fff;}</style></defs><title>menu</title><path class="cls-1" d="M18,61.5a5.5,5.5,0,0,1,0-11h89a5.5,5.5,0,0,1,0,11Z" transform="translate(-12 -50)"/><path class="cls-1" d="M107,51a5,5,0,0,1,0,10H18a5,5,0,0,1,0-10h89m0-1H18a6,6,0,0,0,0,12h89a6,6,0,0,0,0-12Z" transform="translate(-12 -50)"/><path class="cls-1" d="M18,87.5a5.5,5.5,0,0,1,0-11H59a5.5,5.5,0,0,1,0,11Z" transform="translate(-12 -50)"/><path class="cls-1" d="M59,77a5,5,0,0,1,0,10H18a5,5,0,0,1,0-10H59m0-1H18a6,6,0,0,0-6,6h0a6,6,0,0,0,6,6H59a6,6,0,0,0,6-6h0a6,6,0,0,0-6-6Z" transform="translate(-12 -50)"/></svg>